<?xml version="1.0" encoding="UTF-8" standalone="no"?>
<!DOCTYPE svg PUBLIC "-//W3C//DTD SVG 1.1//EN" "http://www.w3.org/Graphics/SVG/1.1/DTD/svg11.dtd">
<svg width="100%" height="100%" viewBox="0 0 4267 4267" version="1.1" xmlns="http://www.w3.org/2000/svg" xmlns:xlink="http://www.w3.org/1999/xlink" xml:space="preserve" xmlns:serif="http://www.serif.com/" style="fill-rule:evenodd;clip-rule:evenodd;stroke-linejoin:round;stroke-miterlimit:2;">
    <g id="Page-1" serif:id="Page 1" transform="matrix(4.166667,0,0,4.166667,0,0)">
        <g id="_1---Layer" serif:id="1 – Layer">
            <g transform="matrix(446.200911,0,0,446.200911,128,255.346287)">
                <path d="M0.625,1.149L0.19,1.149C0.064,1.149 0,1.086 0,0.961L0,0.189C0,0.064 0.064,0.001 0.19,0.001L0.625,0.001L0.625,0.285L0.183,0.285C0.121,0.285 0.086,0.317 0.086,0.382L0.086,0.965C0.086,1.029 0.121,1.062 0.183,1.062L0.625,1.062L0.625,1.149Z" style="fill:rgb(0,255,0);"/>
            </g>
            <g transform="matrix(-446.200911,0,0,446.200911,896,255.346287)">
                <path d="M0.625,1.149L0.19,1.149C0.064,1.149 0,1.086 0,0.961L0,0.189C0,0.064 0.064,0.001 0.19,0.001L0.625,0.001L0.625,0.285L0.183,0.285C0.121,0.285 0.086,0.317 0.086,0.382L0.086,0.965C0.086,1.029 0.121,1.062 0.183,1.062L0.625,1.062L0.625,1.149Z" style="fill:rgb(0,255,0);"/>
            </g>
        </g>
    </g>
</svg>
