<?xml version="1.0" encoding="UTF-8" standalone="no"?>
<!DOCTYPE svg PUBLIC "-//W3C//DTD SVG 1.1//EN" "http://www.w3.org/Graphics/SVG/1.1/DTD/svg11.dtd">
<svg width="100%" height="100%" viewBox="0 0 4267 4267" version="1.1" xmlns="http://www.w3.org/2000/svg" xmlns:xlink="http://www.w3.org/1999/xlink" xml:space="preserve" xmlns:serif="http://www.serif.com/" style="fill-rule:evenodd;clip-rule:evenodd;stroke-linejoin:round;stroke-miterlimit:2;">
    <g id="Page-1" serif:id="Page 1" transform="matrix(4.166667,0,0,4.166667,0,0)">
        <g id="_2---Layer" serif:id="2 – Layer">
            <g transform="matrix(-446.200911,0,0,446.200911,896,255.346287)">
                <path d="M0.501,0.927C0.48,0.927 0.475,0.921 0.475,0.901L0.475,0.864C0.475,0.843 0.48,0.838 0.501,0.838L0.538,0.838C0.559,0.838 0.565,0.843 0.565,0.864L0.565,0.901C0.565,0.921 0.559,0.927 0.538,0.927L0.501,0.927ZM0.501,0.718C0.48,0.718 0.475,0.712 0.475,0.692L0.475,0.655C0.475,0.635 0.48,0.629 0.501,0.629L0.538,0.629C0.559,0.629 0.565,0.635 0.565,0.655L0.565,0.692C0.565,0.712 0.559,0.718 0.538,0.718L0.501,0.718ZM0.289,0.718C0.269,0.718 0.262,0.712 0.262,0.692L0.262,0.655C0.262,0.635 0.269,0.629 0.289,0.629L0.326,0.629C0.347,0.629 0.353,0.635 0.353,0.655L0.353,0.692C0.353,0.712 0.347,0.718 0.326,0.718L0.289,0.718ZM0.501,0.509C0.48,0.509 0.475,0.503 0.475,0.483L0.475,0.446C0.475,0.426 0.48,0.42 0.501,0.42L0.538,0.42C0.559,0.42 0.565,0.426 0.565,0.446L0.565,0.483C0.565,0.503 0.559,0.509 0.538,0.509L0.501,0.509ZM0.289,0.927C0.269,0.927 0.262,0.921 0.262,0.901L0.262,0.864C0.262,0.843 0.269,0.838 0.289,0.838L0.326,0.838C0.347,0.838 0.353,0.843 0.353,0.864L0.353,0.901C0.353,0.921 0.347,0.927 0.326,0.927L0.289,0.927Z" style="fill:rgb(0,255,0);"/>
            </g>
            <g transform="matrix(446.200911,0,0,446.200911,128,255.346287)">
                <path d="M0.501,0.927C0.48,0.927 0.475,0.921 0.475,0.901L0.475,0.864C0.475,0.843 0.48,0.838 0.501,0.838L0.538,0.838C0.559,0.838 0.565,0.843 0.565,0.864L0.565,0.901C0.565,0.921 0.559,0.927 0.538,0.927L0.501,0.927ZM0.501,0.718C0.48,0.718 0.475,0.712 0.475,0.692L0.475,0.655C0.475,0.635 0.48,0.629 0.501,0.629L0.538,0.629C0.559,0.629 0.565,0.635 0.565,0.655L0.565,0.692C0.565,0.712 0.559,0.718 0.538,0.718L0.501,0.718ZM0.289,0.718C0.269,0.718 0.262,0.712 0.262,0.692L0.262,0.655C0.262,0.635 0.269,0.629 0.289,0.629L0.326,0.629C0.347,0.629 0.353,0.635 0.353,0.655L0.353,0.692C0.353,0.712 0.347,0.718 0.326,0.718L0.289,0.718ZM0.501,0.509C0.48,0.509 0.475,0.503 0.475,0.483L0.475,0.446C0.475,0.426 0.48,0.42 0.501,0.42L0.538,0.42C0.559,0.42 0.565,0.426 0.565,0.446L0.565,0.483C0.565,0.503 0.559,0.509 0.538,0.509L0.501,0.509ZM0.289,0.927C0.269,0.927 0.262,0.921 0.262,0.901L0.262,0.864C0.262,0.843 0.269,0.838 0.289,0.838L0.326,0.838C0.347,0.838 0.353,0.843 0.353,0.864L0.353,0.901C0.353,0.921 0.347,0.927 0.326,0.927L0.289,0.927Z" style="fill:rgb(0,255,0);"/>
            </g>
        </g>
    </g>
</svg>
